<svg width="1440" height="1053" viewBox="0 0 1440 1053" fill="none" xmlns="http://www.w3.org/2000/svg">
<rect x="-5" y="119" width="1440" height="775" fill="#293241"/>
<path d="M-5 950.75L43 946.413C91 941.748 187 933.564 283 941.993C379 950.75 475 976.937 571 972.6C667 967.935 763 933.564 859 946.413C955 959.752 1051 1020.31 1147 1042.41C1243 1064.5 1339 1046.5 1387 1038.07L1435 1029.31V846H1387C1339 846 1243 846 1147 846C1051 846 955 846 859 846C763 846 667 846 571 846C475 846 379 846 283 846C187 846 91 846 43 846H-5V950.75Z" fill="#293241"/>
<path d="M-56 104.847L-4.6 91.7707C46.8 78.6942 149.6 52.5413 252.4 30.72C355.2 9.22557 458 -8.75455 560.8 4.56709C663.6 17.3984 766.4 61.5314 869.2 74.3626C972 87.6843 1074.8 69.7041 1177.6 74.3626C1280.4 78.6942 1383.2 104.847 1434.6 117.924L1486 131L1434.6 131C1383.2 131 1280.4 131 1177.6 131C1074.8 131 972 131 869.2 131C766.4 131 663.6 131 560.8 131C458 131 355.2 131 252.4 131C149.6 131 46.8 131 -4.6 131H-56V104.847Z" fill="#293241"/>
</svg>
