<svg xmlns="http://www.w3.org/2000/svg" xmlns:xlink="http://www.w3.org/1999/xlink" width="1080" zoomAndPan="magnify" viewBox="0 0 810 1439.999935" height="1920" preserveAspectRatio="xMidYMid meet" version="1.0"><rect x="-81" width="972" fill="#ffffff" y="-143.999994" height="1727.999922" fill-opacity="1"/><rect x="-81" width="972" fill="#ffbd59" y="-143.999994" height="1727.999922" fill-opacity="1"/><rect x="-81" width="972" fill="#ffffff" y="-143.999994" height="1727.999922" fill-opacity="1"/><rect x="-81" width="972" fill="#ffbd59" y="-143.999994" height="1727.999922" fill-opacity="1"/><path stroke-linecap="butt" transform="matrix(0.75, 0, 0, 0.75, 81.000011, 330.507256)" fill="none" stroke-linejoin="miter" d="M 353.640641 -18.332593 L 353.640641 169.698673 C 353.640641 199.391384 377.875018 223.313261 407.255229 223.313261 L 440.76044 223.313261 C 470.447943 223.313261 494.375028 199.391384 494.375028 169.698673 L 494.375028 -18.332593 L 448.473982 -18.332593 L 448.473982 169.698673 C 448.473982 173.828882 444.890649 177.026799 440.76044 177.026799 L 407.255229 177.026799 C 403.12502 177.026799 399.927103 173.828882 399.927103 169.698673 L 399.927103 -18.332593 Z M 353.640641 -18.332593 " stroke="#ffffff" stroke-width="9.176482" stroke-opacity="1" stroke-miterlimit="4"/><path stroke-linecap="butt" transform="matrix(0.75, 0, 0, 0.75, 81.000011, 330.507256)" fill="none" stroke-linejoin="miter" d="M 119.536454 268.042432 L 73.249991 268.042432 L 73.249991 509.688286 L 119.536454 509.688286 Z M 244.041673 268.042432 L 214.348962 329.683062 L 184.348959 268.042432 L 135.48958 268.042432 L 135.48958 509.688286 L 181.776042 509.688286 L 181.776042 367.943482 L 214.661462 435.349738 L 246.531256 369.266399 L 246.531256 509.688286 L 292.817719 509.688286 L 292.817719 268.042432 Z M 368.494809 461.844532 L 417.666688 461.844532 L 426.937522 509.688286 L 473.848984 509.688286 L 427.562522 268.042432 L 403.953145 268.042432 L 403.25002 268.354932 L 393.041686 268.354932 L 392.729186 268.042432 L 369.119809 268.042432 L 369.119809 268.354932 L 308.802095 509.688286 L 356.651058 509.688286 Z M 396.234394 350.099731 L 408.703145 415.552861 L 379.947935 415.552861 Z M 560.921909 405.657027 L 584.614619 405.657027 L 584.614619 456.073698 C 584.614619 460.203907 581.031285 463.401824 576.901077 463.401824 L 543.078157 463.401824 C 539.260448 463.401824 536.06774 460.203907 536.06774 456.386198 L 536.06774 321.96952 C 536.06774 317.839311 539.260448 314.328894 543.390657 314.328894 L 576.588577 314.328894 C 581.031285 314.328894 584.614619 317.839311 584.614619 322.354937 L 584.614619 333.500771 L 630.510456 333.500771 L 630.510456 322.354937 C 630.510456 292.354934 606.276079 268.354932 576.588577 268.354932 L 543.390657 268.354932 C 513.703155 268.354932 489.781278 292.354934 489.781278 321.96952 L 489.781278 456.386198 C 489.781278 485.766409 513.703155 509.688286 543.078157 509.688286 L 576.901077 509.688286 C 606.588579 509.688286 630.510456 485.453909 630.510456 456.073698 L 630.822956 359.370565 L 560.921909 359.370565 Z M 774.765677 268.354932 L 646.817749 268.042432 L 646.817749 509.688286 L 774.765677 509.688286 L 774.765677 463.401824 L 693.104212 463.401824 L 693.104212 405.657027 L 745.7813 405.657027 L 745.7813 359.370565 L 693.104212 359.370565 L 693.104212 314.328894 L 774.765677 314.328894 Z M 774.765677 268.354932 " stroke="#ffffff" stroke-width="9.176482" stroke-opacity="1" stroke-miterlimit="4"/><path stroke-linecap="butt" transform="matrix(0.75, 0, 0, 0.75, 81.000011, 330.507256)" fill="none" stroke-linejoin="miter" d="M 232.005213 555.042457 L 232.005213 646.37059 L 183.848959 646.37059 L 183.848959 555.042457 L 137.562497 555.042457 L 137.562497 796.688311 L 183.848959 796.688311 L 183.848959 692.657052 L 232.005213 692.657052 L 232.005213 796.688311 L 278.296884 796.688311 L 278.296884 555.042457 Z M 422.234397 555.354957 L 294.281261 555.042457 L 294.281261 796.688311 L 422.234397 796.688311 L 422.234397 750.401849 L 340.567723 750.401849 L 340.567723 692.657052 L 393.244811 692.657052 L 393.244811 646.37059 L 340.567723 646.37059 L 340.567723 601.328919 L 422.234397 601.328919 Z M 563.375034 699.985178 C 563.062534 687.828927 558.859409 676.370592 551.531283 667.412258 C 561.114617 655.953924 566.572951 641.229964 566.572951 624.631004 C 566.572951 586.990376 538.44274 558.860165 498.854195 555.667457 L 438.22919 556.058082 L 438.22919 797.313311 L 484.515652 797.313311 L 484.515652 693.282052 L 509.765654 693.282052 C 513.895863 693.282052 517.088572 696.474761 517.088572 700.297678 L 517.713572 797.313311 L 563.687534 797.313311 Z M 491.218778 646.99559 L 484.828152 646.99559 L 484.828152 601.641419 L 491.218778 601.641419 C 495.973986 601.641419 520.286488 602.969544 520.286488 624.631004 C 520.286488 645.360173 498.229195 646.99559 491.218778 646.99559 Z M 710.453172 555.354957 L 582.500036 555.042457 L 582.500036 796.688311 L 710.453172 796.688311 L 710.453172 750.401849 L 628.786498 750.401849 L 628.786498 692.657052 L 681.463586 692.657052 L 681.463586 646.37059 L 628.786498 646.37059 L 628.786498 601.328919 L 710.453172 601.328919 Z M 710.453172 555.354957 " stroke="#ffffff" stroke-width="9.176482" stroke-opacity="1" stroke-miterlimit="4"/></svg>