<svg width="18" height="18" viewBox="0 0 18 18" fill="none" xmlns="http://www.w3.org/2000/svg">
<path d="M3.68693 18C3.6149 18 3.54286 17.9622 3.47082 17.9244C3.36276 17.8487 3.29072 17.6597 3.32674 17.5084L4.91158 11.3067L0.157068 7.2605C0.0129913 7.18487 -0.0230277 6.9958 0.0129913 6.84454C0.0490104 6.69328 0.193087 6.57983 0.337163 6.57983L6.4604 6.2395L8.65756 0.226891C8.7296 0.113445 8.87368 0 9.01775 0C9.16183 0 9.3059 0.113445 9.34192 0.226891L11.5391 6.2395L17.6623 6.57983C17.8064 6.57983 17.9505 6.69328 17.9865 6.84454C18.0225 6.9958 17.9865 7.14706 17.8784 7.2605L13.1239 11.3067L14.7088 17.5084C14.7448 17.6597 14.7088 17.8109 14.5647 17.9244C14.4566 18 14.2765 18.0378 14.1685 17.9244L9.01775 14.4454L3.86703 17.9244C3.79499 18 3.75897 18 3.68693 18Z" fill="#FCD342"/>
</svg>
